PathFileType	4	(X/Y/Z)	ptf.trc
DataRate	CameraRate	NumFrames	NumMarkers	Units	OrigDataRate	OrigDataStartFrame	OrigNumFrames
60.00	60.00	10	39	m	60.00	19	151
Frame#	Time	Sternum				R.Acromium				L.Acromium				Top.Head				R.ASIS				L.ASIS				V.Sacral				R.Thigh.Upper				R.Thigh.Front				R.Thigh.Rear				R.Knee.Lat				R.Knee.Med				R.Shank.Upper				R.Shank.Front				R.Shank.Rear				R.Ankle.Lat				R.Ankle.Med				R.Heel				R.Midfoot.Sup				R.Midfoot.Lat				R.Toe.Lat				R.Toe.Med				R.Toe.Tip				L.Thigh.Upper				L.Thigh.Front				L.Thigh.Rear				L.Knee.Lat				L.Knee.Med				L.Shank.Upper				L.Shank.Front				L.Shank.Rear				L.Ankle.Lat				L.Ankle.Med				L.Heel				L.Midfoot.Sup				L.Midfoot.Lat				L.Toe.Lat				L.Toe.Med				L.Toe.Tip				
		X1	Y1	Z1		X2	Y2	Z2		X3	Y3	Z3		X4	Y4	Z4		X5	Y5	Z5		X6	Y6	Z6		X7	Y7	Z7		X8	Y8	Z8		X9	Y9	Z9		X10	Y10	Z10		X11	Y11	Z11		X12	Y12	Z12		X13	Y13	Z13		X14	Y14	Z14		X15	Y15	Z15		X16	Y16	Z16		X17	Y17	Z17		X18	Y18	Z18		X19	Y19	Z19		X20	Y20	Z20		X21	Y21	Z21		X22	Y22	Z22		X23	Y23	Z23		X24	Y24	Z24		X25	Y25	Z25		X26	Y26	Z26		X27	Y27	Z27		X28	Y28	Z28		X29	Y29	Z29		X30	Y30	Z30		X31	Y31	Z31		X32	Y32	Z32		X33	Y33	Z33		X34	Y34	Z34		X35	Y35	Z35		X36	Y36	Z36		X37	Y37	Z37		X38	Y38	Z38		X39	Y39	Z39		
19	0.3	0.681929	1.39598	-0.0232339		0.571098	1.54767	0.127205		0.603798	1.53779	-0.211949		0.729374	1.7827	-0.0353801		0.634407	1.08277	0.116585		0.649254	1.07235	-0.144999		0.443749	1.0663	-0.0129228		0.634181	0.780325	0.196888		0.728012	0.732097	0.126016		0.658415	0.661126	0.201307		0.648587	0.566842	0.185822		0.682134	0.542715	0.0705613		0.603193	0.514902	0.189338		0.631055	0.428221	0.150279		0.542966	0.45198	0.19188		0.325486	0.274707	0.134281		0.362392	0.266876	0.0517437		0.277906	0.308267	0.0677781		0.382426	0.203434	0.0631184		0.336735	0.198939	0.162237		0.370592	0.114906	0.183907		0.40977	0.117382	0.0819586		0.438864	0.0717971	0.124354		0.607351	0.761822	-0.189089		0.700143	0.735356	-0.123691		0.61469	0.653853	-0.167972		0.608602	0.522722	-0.143452		0.625493	0.530558	-0.0286976		0.602924	0.44266	-0.15496		0.649209	0.390458	-0.103533		0.580355	0.401147	-0.161346		0.571877	0.0886622	-0.114986		0.590469	0.114534	-0.0261585		0.498297	0.0768383	-0.0588414		0.67057	0.0819857	-0.0323258		0.652524	0.0592829	-0.128365		0.71529	0.0329314	-0.132577		0.73198	0.0564688	-0.033111		0.78127	0.0503365	-0.0574889		
20	0.316667	0.679482	1.39684	-0.0234415		0.567945	1.54887	0.126125		0.602886	1.53863	-0.212795		0.727757	1.78345	-0.0356025		0.631746	1.0841	0.115164		0.645643	1.07253	-0.146424		0.440581	1.06775	-0.0136095		0.640078	0.784535	0.193978		0.734615	0.740286	0.121467		0.668938	0.666337	0.19741		0.662508	0.571818	0.181578		0.695219	0.54954	0.0657061		0.619271	0.517853	0.185529		0.650379	0.432637	0.145702		0.561969	0.452285	0.188743		0.35178	0.26563	0.13378		0.387716	0.259733	0.0506549		0.301431	0.29666	0.0680476		0.411219	0.197454	0.0616593		0.367398	0.190575	0.161483		0.405955	0.108435	0.182552		0.443334	0.112958	0.0799999		0.475445	0.0689641	0.121896		0.598546	0.761276	-0.189607		0.690577	0.732561	-0.124082		0.603197	0.653168	-0.168438		0.593851	0.522237	-0.143874		0.610787	0.529704	-0.0291014		0.58713	0.442186	-0.15535		0.632953	0.389618	-0.103881		0.564217	0.40086	-0.161729		0.553099	0.0884766	-0.115246		0.571868	0.114228	-0.0264207		0.479506	0.0767985	-0.0590351		0.651814	0.081591	-0.0326813		0.633631	0.0589621	-0.128712		0.69634	0.0324868	-0.132994		0.713172	0.0559517	-0.0335349		0.762426	0.0497304	-0.057962		
21	0.333333	0.678307	1.39752	-0.0242679		0.567277	1.5498	0.125422		0.602351	1.53983	-0.213492		0.728068	1.78396	-0.0359475		0.630777	1.08666	0.113017		0.642055	1.07225	-0.148556		0.438314	1.06929	-0.0136708		0.645944	0.788854	0.191149		0.7406	0.74792	0.116869		0.67837	0.671555	0.193323		0.674514	0.576988	0.176947		0.706037	0.556437	0.0604287		0.633316	0.52051	0.181334		0.668446	0.437212	0.140801		0.579836	0.451836	0.185403		0.379493	0.253772	0.133692		0.414255	0.249986	0.0499472		0.326224	0.281703	0.0688532		0.441628	0.189244	0.0605103		0.40004	0.179812	0.161078		0.443805	0.10014	0.181435		0.479057	0.106832	0.0782507		0.514468	0.0648642	0.119562		0.590049	0.760579	-0.189702		0.681295	0.729557	-0.124131		0.591976	0.652386	-0.168545		0.579336	0.521728	-0.144003		0.596391	0.528753	-0.0292208		0.571517	0.441719	-0.155487		0.616872	0.388729	-0.104037		0.548227	0.400605	-0.161865		0.534274	0.0883294	-0.115421		0.553299	0.113897	-0.0265973		0.460708	0.0767766	-0.0590914		0.633073	0.0811684	-0.033037		0.614672	0.0586769	-0.129059		0.677315	0.03207	-0.133478		0.694373	0.055397	-0.034025		0.743571	0.0490937	-0.0585454		
22	0.35	0.676482	1.3975	-0.0244013		0.565637	1.55006	0.125144		0.601664	1.54034	-0.213677		0.727857	1.78374	-0.0354752		0.628329	1.08757	0.111595		0.638291	1.07175	-0.14995		0.435193	1.07027	-0.0140753		0.650287	0.79226	0.187946		0.74478	0.754476	0.111813		0.686138	0.675946	0.188907		0.684745	0.581391	0.172075		0.714812	0.562355	0.0549169		0.645838	0.522118	0.177024		0.685437	0.441172	0.13585		0.596939	0.450175	0.182131		0.408705	0.239649	0.134306		0.442037	0.237966	0.0499142		0.352389	0.263602	0.070427		0.473737	0.179318	0.0600891		0.434816	0.167397	0.161457		0.48437	0.0910181	0.181157		0.517112	0.0997572	0.0773002		0.55612	0.0604899	0.118023		0.58119	0.75973	-0.190006		0.671571	0.72653	-0.124304		0.580473	0.651528	-0.16882		0.564647	0.52122	-0.144264		0.581712	0.527863	-0.0294603		0.555793	0.441268	-0.155732		0.600653	0.387896	-0.104243		0.532148	0.400357	-0.162114		0.515439	0.0882272	-0.115601		0.534636	0.113649	-0.0267724		0.441856	0.0768045	-0.0592121		0.614253	0.0808453	-0.0333084		0.595722	0.05845	-0.129328		0.65831	0.0317244	-0.13382		0.675502	0.0549555	-0.0343672		0.724665	0.0485723	-0.0589353		
23	0.366667	0.674157	1.3974	-0.0250382		0.563794	1.55002	0.124798		0.599703	1.54079	-0.214049		0.726648	1.78352	-0.0354642		0.625461	1.08877	0.110466		0.634971	1.0716	-0.151011		0.432115	1.07068	-0.0147699		0.653451	0.795227	0.185035		0.747592	0.759961	0.107274		0.69199	0.679771	0.18491		0.692519	0.585281	0.167671		0.721186	0.567438	0.0499752		0.656007	0.522875	0.173175		0.700666	0.444845	0.131553		0.612565	0.447592	0.17936		0.439337	0.223743	0.135494		0.471233	0.224125	0.0505331		0.380231	0.242906	0.0724987		0.50753	0.16817	0.0604183		0.471392	0.15389	0.162509		0.527027	0.0816791	0.181688		0.557207	0.0922964	0.0772321		0.599824	0.0563984	0.117444		0.572644	0.758881	-0.190306		0.662042	0.723336	-0.124486		0.569069	0.650738	-0.16911		0.549806	0.520892	-0.144561		0.566893	0.527102	-0.029736		0.539905	0.441013	-0.156023		0.5843	0.387275	-0.104511		0.515922	0.4003	-0.16241		0.496596	0.0883253	-0.11587		0.515971	0.113596	-0.0270373		0.42299	0.0770966	-0.0594284		0.595418	0.0806305	-0.0336613		0.576747	0.0583466	-0.129679		0.639254	0.0314455	-0.134238		0.656592	0.0545669	-0.0347851		0.705718	0.0480586	-0.0593967		
24	0.383333	0.672453	1.3969	-0.0251651		0.561393	1.54952	0.124156		0.599834	1.54089	-0.21443		0.726111	1.78289	-0.0343811		0.6224	1.08904	0.109024		0.633083	1.07157	-0.152388		0.429626	1.07063	-0.0170458		0.654995	0.797307	0.182004		0.749052	0.763883	0.103334		0.695629	0.682574	0.181335		0.697724	0.588135	0.163934		0.72564	0.570997	0.0459533		0.663761	0.522378	0.169944		0.714056	0.447825	0.128376		0.626538	0.443923	0.177164		0.471272	0.206624	0.136886		0.502116	0.208863	0.0515658		0.41009	0.220178	0.0743947		0.54307	0.156251	0.0615172		0.509335	0.139964	0.164129		0.571025	0.0728489	0.183295		0.599107	0.0849648	0.0784178		0.645004	0.0531436	0.118451		0.564747	0.757903	-0.1916		0.652957	0.719905	-0.125548		0.558024	0.649939	-0.170252		0.534989	0.520739	-0.145549		0.552022	0.526631	-0.0306998		0.524025	0.440938	-0.156902		0.567935	0.38692	-0.105268		0.499719	0.400411	-0.16325		0.477823	0.0886729	-0.116263		0.49732	0.11392	-0.0274492		0.404138	0.077833	-0.0598185		0.576576	0.0806458	-0.0340326		0.55782	0.0583466	-0.130031		0.620211	0.0311705	-0.134554		0.637637	0.0543165	-0.0351224		0.686736	0.0475707	-0.0597211		
25	0.4	0.670053	1.3958	-0.0251141		0.559349	1.54816	0.124744		0.597822	1.54066	-0.213864		0.724672	1.78168	-0.0329166		0.619181	1.08778	0.108022		0.629992	1.07107	-0.153434		0.426454	1.07006	-0.0182157		0.654666	0.79806	0.180125		0.749036	0.766188	0.101186		0.697081	0.683975	0.179231		0.700604	0.589599	0.161722		0.72849	0.573021	0.0436537		0.66947	0.520365	0.168082		0.725802	0.450017	0.126929		0.639145	0.439077	0.17618		0.504641	0.188976	0.138773		0.534826	0.193062	0.0532857		0.442237	0.196358	0.0764351		0.580348	0.144435	0.0635705		0.548598	0.126275	0.1665		0.616113	0.0651436	0.186049		0.642596	0.0786206	0.0809225		0.691308	0.0514477	0.121056		0.556226	0.756737	-0.19269		0.643302	0.716582	-0.126409		0.5467	0.649009	-0.17122		0.520318	0.520473	-0.146402		0.537264	0.526078	-0.0315251		0.508339	0.440776	-0.157666		0.551719	0.386446	-0.105912		0.483689	0.400454	-0.16399		0.459035	0.0889783	-0.116628		0.478648	0.11417	-0.0278246		0.385262	0.0785181	-0.0601924		0.557705	0.080592	-0.0343693		0.538873	0.058306	-0.130356		0.601145	0.0308528	-0.134845		0.61865	0.0539938	-0.0354263		0.667725	0.0470146	-0.0600089		
26	0.416667	0.668875	1.39398	-0.0250762		0.558589	1.54668	0.124736		0.597971	1.53956	-0.213776		0.725635	1.77957	-0.0320562		0.616811	1.08665	0.106708		0.626957	1.07038	-0.154802		0.423759	1.06924	-0.0190745		0.652966	0.79787	0.179202		0.74808	0.766985	0.100765		0.696376	0.68416	0.178328		0.700824	0.589854	0.160646		0.729558	0.573769	0.0427128		0.672693	0.516982	0.167122		0.735477	0.45175	0.12689		0.649997	0.433318	0.175965		0.53941	0.171462	0.140714		0.56945	0.177469	0.0552891		0.476857	0.172389	0.078095		0.619244	0.133385	0.066232		0.588876	0.113395	0.16924		0.661689	0.0589954	0.18965		0.687256	0.073812	0.0844768		0.738107	0.0516848	0.125053		0.547859	0.755456	-0.193677		0.633808	0.713161	-0.127256		0.535536	0.64804	-0.172063		0.505821	0.520263	-0.147089		0.522801	0.525594	-0.0322045		0.492801	0.440692	-0.158242		0.535688	0.386046	-0.106409		0.467789	0.400585	-0.16451		0.440321	0.0894129	-0.116704		0.460158	0.114553	-0.0279362		0.366521	0.0793674	-0.0601941		0.538995	0.0806425	-0.0345254		0.519972	0.0583645	-0.130476		0.582109	0.0306114	-0.134997		0.599812	0.0537537	-0.0356134		0.648831	0.04652	-0.0602335		
27	0.433333	0.667298	1.39222	-0.024823		0.557409	1.54509	0.125106		0.596595	1.53802	-0.21343		0.724853	1.77769	-0.0316881		0.614545	1.08427	0.106826		0.624801	1.06954	-0.154771		0.421531	1.06791	-0.0191566		0.65006	0.795991	0.17928		0.746252	0.765931	0.101843		0.694054	0.682505	0.178426		0.699189	0.588303	0.160387		0.729399	0.572883	0.0427347		0.674377	0.511838	0.166767		0.743585	0.452612	0.127803		0.659786	0.426457	0.176265		0.575405	0.154807	0.142702		0.605602	0.162888	0.0575041		0.513689	0.149227	0.0795068		0.659249	0.123832	0.0693371		0.629879	0.101961	0.172252		0.70732	0.0549138	0.193863		0.732424	0.0711594	0.0887896		0.784735	0.0543279	0.130047		0.539824	0.754116	-0.194139		0.624588	0.709577	-0.127663		0.524612	0.647088	-0.172448		0.491467	0.520175	-0.147385		0.508555	0.525135	-0.0324995		0.477389	0.440758	-0.15847		0.519815	0.385764	-0.106626		0.452009	0.400875	-0.16469		0.42175	0.0900012	-0.116629		0.441879	0.115026	-0.0278942		0.347969	0.0803294	-0.0599948		0.520489	0.0807935	-0.0346116		0.501202	0.0585905	-0.130527		0.5632	0.0305433	-0.135146		0.581176	0.0536174	-0.0357957		0.63012	0.0461483	-0.0604956		
28	0.45	0.665547	1.38992	-0.0242147		0.556223	1.54287	0.126052		0.594818	1.53605	-0.212557		0.72387	1.77528	-0.0307964		0.612661	1.08158	0.106869		0.622252	1.06891	-0.154862		0.419347	1.06578	-0.0187257		0.646711	0.792731	0.179241		0.743992	0.763192	0.102974		0.690747	0.679263	0.178274		0.696164	0.58518	0.159702		0.728031	0.570526	0.0423892		0.674973	0.505275	0.165931		0.750234	0.452868	0.128448		0.668834	0.418962	0.176191		0.612361	0.139939	0.144607		0.642707	0.15016	0.0596924		0.552259	0.127981	0.0807719		0.699689	0.116485	0.072511		0.67127	0.0927731	0.175285		0.752564	0.0534988	0.198226		0.7773	0.0711863	0.0932982		0.830463	0.0597589	0.13531		0.532216	0.752705	-0.194608		0.615795	0.706073	-0.128066		0.514272	0.646117	-0.172835		0.477892	0.520112	-0.14768		0.495063	0.52473	-0.0327923		0.462689	0.440884	-0.158696		0.504542	0.385475	-0.106829		0.436875	0.401274	-0.164872		0.403275	0.0907841	-0.116549		0.423717	0.11566	-0.0278433		0.329508	0.0814944	-0.0597842		0.502073	0.081112	-0.0347042		0.482509	0.0590068	-0.130586		0.54436	0.0306561	-0.135315		0.562624	0.0536387	-0.0359956		0.611488	0.0459305	-0.0607817		
